<?xml version="1.0" encoding="UTF-8"?>
<svg id="Layer_1" data-name="Layer 1" xmlns="http://www.w3.org/2000/svg" xmlns:xlink="http://www.w3.org/1999/xlink" viewBox="0 0 1920 1080">
  <defs>
    <style>
      .cls-1 {
        fill: none;
      }

      .cls-2 {
        fill: #fff;
        font-family: WarblerDeck-BoldItalic, 'Warbler Deck';
        font-size: 160.6px;
        font-style: italic;
        font-weight: 700;
      }

      .cls-3 {
        font-family: Alfabet-Black, Alfabet;
        font-size: 59.27px;
        font-weight: 800;
      }

      .cls-3, .cls-4 {
        fill: #004330;
      }

      .cls-5 {
        fill: #25e8e3;
      }

      .cls-6, .cls-7 {
        fill: #00b86c;
      }

      .cls-7 {
        font-family: MikelaRegular, Mikela;
        font-size: 72px;
      }

      .cls-8 {
        letter-spacing: -.02em;
      }

      .cls-9 {
        letter-spacing: -.02em;
      }

      .cls-10 {
        letter-spacing: 0em;
      }

      .cls-11 {
        letter-spacing: -.01em;
      }

      .cls-12 {
        letter-spacing: 0em;
      }

      .cls-13 {
        letter-spacing: 0em;
      }

      .cls-14 {
        letter-spacing: 0em;
      }

      .cls-15 {
        letter-spacing: 0em;
      }

      .cls-16 {
        clip-path: url(#clippath);
      }

      .cls-17 {
        letter-spacing: 0em;
      }

      .cls-18 {
        letter-spacing: .01em;
      }

      .cls-19 {
        letter-spacing: .01em;
      }

      .cls-20 {
        letter-spacing: 0em;
      }

      .cls-21 {
        letter-spacing: 0em;
      }

      .cls-22 {
        letter-spacing: 0em;
      }
    </style>
    <clipPath id="clippath">
      <rect class="cls-1" x="-1.12" y=".23" width="1920" height="1079.54"/>
    </clipPath>
  </defs>
  <rect class="cls-5" width="1918.88" height="1079.77"/>
  <g class="cls-16">
    <g>
      <g>
        <path class="cls-4" d="M1650.07,586.39c7.71-19.55,23.23-35.06,42.78-42.77-19.55-7.71-35.06-23.23-42.78-42.77-7.71,19.55-23.23,35.06-42.78,42.77,19.55,7.71,35.06,23.23,42.78,42.77Z"/>
        <path class="cls-4" d="M1538.49,586.39c7.71-19.55,23.23-35.06,42.78-42.77-19.55-7.71-35.06-23.23-42.78-42.77-7.71,19.55-23.23,35.06-42.78,42.77,19.55,7.71,35.06,23.23,42.78,42.77Z"/>
        <path class="cls-4" d="M1650.07,375.42c7.71-19.55,23.23-35.06,42.78-42.77-19.55-7.71-35.06-23.23-42.78-42.77-7.71,19.55-23.23,35.06-42.78,42.77,19.55,7.71,35.06,23.23,42.78,42.77Z"/>
        <path class="cls-4" d="M1538.49,375.42c7.71-19.55,23.23-35.06,42.78-42.77-19.55-7.71-35.06-23.23-42.78-42.77-7.71,19.55-23.23,35.06-42.78,42.77,19.55,7.71,35.06,23.23,42.78,42.77Z"/>
        <path class="cls-4" d="M1650.07,480.9c7.71-19.55,23.23-35.06,42.78-42.77-19.55-7.71-35.06-23.23-42.78-42.77-7.71,19.55-23.23,35.06-42.78,42.77,19.55,7.71,35.06,23.23,42.78,42.77Z"/>
        <path class="cls-4" d="M1538.49,480.9c7.71-19.55,23.23-35.06,42.78-42.77-19.55-7.71-35.06-23.23-42.78-42.77-7.71,19.55-23.23,35.06-42.78,42.77,19.55,7.71,35.06,23.23,42.78,42.77Z"/>
        <path class="cls-4" d="M1860.13,586.39c7.71-19.55,23.23-35.06,42.78-42.77-19.55-7.71-35.06-23.23-42.78-42.77-7.71,19.55-23.23,35.06-42.78,42.77,19.55,7.71,35.06,23.23,42.78,42.77Z"/>
        <path class="cls-4" d="M1860.13,375.42c7.71-19.55,23.23-35.06,42.78-42.77-19.55-7.71-35.06-23.23-42.78-42.77-7.71,19.55-23.23,35.06-42.78,42.77,19.55,7.71,35.06,23.23,42.78,42.77Z"/>
        <path class="cls-4" d="M1860.13,480.9c7.71-19.55,23.23-35.06,42.78-42.77-19.55-7.71-35.06-23.23-42.78-42.77-7.71,19.55-23.23,35.06-42.78,42.77,19.55,7.71,35.06,23.23,42.78,42.77Z"/>
        <path class="cls-4" d="M1755.1,586.39c7.71-19.55,23.23-35.06,42.78-42.77-19.55-7.71-35.06-23.23-42.78-42.77-7.71,19.55-23.23,35.06-42.78,42.77,19.55,7.71,35.06,23.23,42.78,42.77Z"/>
        <path class="cls-4" d="M1650.07,691.87c7.71-19.55,23.23-35.06,42.78-42.77-19.55-7.71-35.06-23.23-42.78-42.77-7.71,19.55-23.23,35.06-42.78,42.77,19.55,7.71,35.06,23.23,42.78,42.77Z"/>
        <path class="cls-4" d="M1538.49,691.87c7.71-19.55,23.23-35.06,42.78-42.77-19.55-7.71-35.06-23.23-42.78-42.77-7.71,19.55-23.23,35.06-42.78,42.77,19.55,7.71,35.06,23.23,42.78,42.77Z"/>
        <path class="cls-4" d="M1860.13,691.87c7.71-19.55,23.23-35.06,42.78-42.77-19.55-7.71-35.06-23.23-42.78-42.77-7.71,19.55-23.23,35.06-42.78,42.77,19.55,7.71,35.06,23.23,42.78,42.77Z"/>
        <path class="cls-4" d="M1755.1,691.87c7.71-19.55,23.23-35.06,42.78-42.77-19.55-7.71-35.06-23.23-42.78-42.77-7.71,19.55-23.23,35.06-42.78,42.77,19.55,7.71,35.06,23.23,42.78,42.77Z"/>
        <path class="cls-4" d="M1755.1,375.42c7.71-19.55,23.23-35.06,42.78-42.77-19.55-7.71-35.06-23.23-42.78-42.77-7.71,19.55-23.23,35.06-42.78,42.77,19.55,7.71,35.06,23.23,42.78,42.77Z"/>
        <path class="cls-4" d="M1755.1,480.9c7.71-19.55,23.23-35.06,42.78-42.77-19.55-7.71-35.06-23.23-42.78-42.77-7.71,19.55-23.23,35.06-42.78,42.77,19.55,7.71,35.06,23.23,42.78,42.77Z"/>
        <path class="cls-4" d="M1650.07,1008.32c7.71-19.55,23.23-35.06,42.78-42.77-19.55-7.71-35.06-23.23-42.78-42.77-7.71,19.55-23.23,35.06-42.78,42.77,19.55,7.71,35.06,23.23,42.78,42.77Z"/>
        <path class="cls-4" d="M1538.49,1008.32c7.71-19.55,23.23-35.06,42.78-42.77-19.55-7.71-35.06-23.23-42.78-42.77-7.71,19.55-23.23,35.06-42.78,42.77,19.55,7.71,35.06,23.23,42.78,42.77Z"/>
        <path class="cls-4" d="M1650.07,797.35c7.71-19.55,23.23-35.06,42.78-42.77-19.55-7.71-35.06-23.23-42.78-42.77-7.71,19.55-23.23,35.06-42.78,42.77,19.55,7.71,35.06,23.23,42.78,42.77Z"/>
        <path class="cls-4" d="M1538.49,797.35c7.71-19.55,23.23-35.06,42.78-42.77-19.55-7.71-35.06-23.23-42.78-42.77-7.71,19.55-23.23,35.06-42.78,42.77,19.55,7.71,35.06,23.23,42.78,42.77Z"/>
        <path class="cls-4" d="M1650.07,902.84c7.71-19.55,23.23-35.06,42.78-42.77-19.55-7.71-35.06-23.23-42.78-42.77-7.71,19.55-23.23,35.06-42.78,42.77,19.55,7.71,35.06,23.23,42.78,42.77Z"/>
        <path class="cls-4" d="M1538.49,902.84c7.71-19.55,23.23-35.06,42.78-42.77-19.55-7.71-35.06-23.23-42.78-42.77-7.71,19.55-23.23,35.06-42.78,42.77,19.55,7.71,35.06,23.23,42.78,42.77Z"/>
        <path class="cls-4" d="M1860.13,1008.32c7.71-19.55,23.23-35.06,42.78-42.77-19.55-7.71-35.06-23.23-42.78-42.77-7.71,19.55-23.23,35.06-42.78,42.77,19.55,7.71,35.06,23.23,42.78,42.77Z"/>
        <path class="cls-4" d="M1860.13,797.35c7.71-19.55,23.23-35.06,42.78-42.77-19.55-7.71-35.06-23.23-42.78-42.77-7.71,19.55-23.23,35.06-42.78,42.77,19.55,7.71,35.06,23.23,42.78,42.77Z"/>
        <path class="cls-4" d="M1860.13,902.84c7.71-19.55,23.23-35.06,42.78-42.77-19.55-7.71-35.06-23.23-42.78-42.77-7.71,19.55-23.23,35.06-42.78,42.77,19.55,7.71,35.06,23.23,42.78,42.77Z"/>
        <path class="cls-4" d="M1755.1,1008.32c7.71-19.55,23.23-35.06,42.78-42.77-19.55-7.71-35.06-23.23-42.78-42.77-7.71,19.55-23.23,35.06-42.78,42.77,19.55,7.71,35.06,23.23,42.78,42.77Z"/>
        <path class="cls-4" d="M1755.1,797.35c7.71-19.55,23.23-35.06,42.78-42.77-19.55-7.71-35.06-23.23-42.78-42.77-7.71,19.55-23.23,35.06-42.78,42.77,19.55,7.71,35.06,23.23,42.78,42.77Z"/>
        <path class="cls-4" d="M1755.1,902.84c7.71-19.55,23.23-35.06,42.78-42.77-19.55-7.71-35.06-23.23-42.78-42.77-7.71,19.55-23.23,35.06-42.78,42.77,19.55,7.71,35.06,23.23,42.78,42.77Z"/>
        <path class="cls-4" d="M1650.07,163.24c7.71-19.55,23.23-35.06,42.78-42.77-19.55-7.71-35.06-23.23-42.78-42.77-7.71,19.55-23.23,35.06-42.78,42.77,19.55,7.71,35.06,23.23,42.78,42.77Z"/>
        <path class="cls-4" d="M1538.49,163.24c7.71-19.55,23.23-35.06,42.78-42.77-19.55-7.71-35.06-23.23-42.78-42.77-7.71,19.55-23.23,35.06-42.78,42.77,19.55,7.71,35.06,23.23,42.78,42.77Z"/>
        <path class="cls-4" d="M1650.07,268.73c7.71-19.55,23.23-35.06,42.78-42.77-19.55-7.71-35.06-23.23-42.78-42.77-7.71,19.55-23.23,35.06-42.78,42.77,19.55,7.71,35.06,23.23,42.78,42.77Z"/>
        <path class="cls-4" d="M1538.49,268.73c7.71-19.55,23.23-35.06,42.78-42.77-19.55-7.71-35.06-23.23-42.78-42.77-7.71,19.55-23.23,35.06-42.78,42.77,19.55,7.71,35.06,23.23,42.78,42.77Z"/>
        <path class="cls-4" d="M1860.13,163.24c7.71-19.55,23.23-35.06,42.78-42.77-19.55-7.71-35.06-23.23-42.78-42.77-7.71,19.55-23.23,35.06-42.78,42.77,19.55,7.71,35.06,23.23,42.78,42.77Z"/>
        <path class="cls-4" d="M1860.13,268.73c7.71-19.55,23.23-35.06,42.78-42.77-19.55-7.71-35.06-23.23-42.78-42.77-7.71,19.55-23.23,35.06-42.78,42.77,19.55,7.71,35.06,23.23,42.78,42.77Z"/>
        <path class="cls-4" d="M1755.1,163.24c7.71-19.55,23.23-35.06,42.78-42.77-19.55-7.71-35.06-23.23-42.78-42.77-7.71,19.55-23.23,35.06-42.78,42.77,19.55,7.71,35.06,23.23,42.78,42.77Z"/>
        <path class="cls-4" d="M1755.1,268.73c7.71-19.55,23.23-35.06,42.78-42.77-19.55-7.71-35.06-23.23-42.78-42.77-7.71,19.55-23.23,35.06-42.78,42.77,19.55,7.71,35.06,23.23,42.78,42.77Z"/>
      </g>
      <g>
        <path class="cls-6" d="M1701.5,534.92c7.71-19.55,23.23-35.06,42.78-42.77-19.55-7.71-35.06-23.23-42.78-42.77-7.71,19.55-23.23,35.06-42.78,42.77,19.55,7.71,35.06,23.23,42.78,42.77Z"/>
        <path class="cls-6" d="M1594.28,534.92c7.71-19.55,23.23-35.06,42.78-42.77-19.55-7.71-35.06-23.23-42.78-42.77-7.71,19.55-23.23,35.06-42.78,42.77,19.55,7.71,35.06,23.23,42.78,42.77Z"/>
        <path class="cls-6" d="M1487.07,534.92c7.71-19.55,23.23-35.06,42.78-42.77-19.55-7.71-35.06-23.23-42.78-42.77-7.71,19.55-23.23,35.06-42.78,42.77,19.55,7.71,35.06,23.23,42.78,42.77Z"/>
        <path class="cls-6" d="M1701.5,640.41c7.71-19.55,23.23-35.06,42.78-42.77-19.55-7.71-35.06-23.23-42.78-42.77-7.71,19.55-23.23,35.06-42.78,42.77,19.55,7.71,35.06,23.23,42.78,42.77Z"/>
        <path class="cls-6" d="M1594.28,640.41c7.71-19.55,23.23-35.06,42.78-42.77-19.55-7.71-35.06-23.23-42.78-42.77-7.71,19.55-23.23,35.06-42.78,42.77,19.55,7.71,35.06,23.23,42.78,42.77Z"/>
        <path class="cls-6" d="M1487.07,640.41c7.71-19.55,23.23-35.06,42.78-42.77-19.55-7.71-35.06-23.23-42.78-42.77-7.71,19.55-23.23,35.06-42.78,42.77,19.55,7.71,35.06,23.23,42.78,42.77Z"/>
        <path class="cls-6" d="M1701.5,323.95c7.71-19.55,23.23-35.06,42.78-42.77-19.55-7.71-35.06-23.23-42.78-42.77-7.71,19.55-23.23,35.06-42.78,42.77,19.55,7.71,35.06,23.23,42.78,42.77Z"/>
        <path class="cls-6" d="M1594.28,323.95c7.71-19.55,23.23-35.06,42.78-42.77-19.55-7.71-35.06-23.23-42.78-42.77-7.71,19.55-23.23,35.06-42.78,42.77,19.55,7.71,35.06,23.23,42.78,42.77Z"/>
        <path class="cls-6" d="M1487.07,323.95c7.71-19.55,23.23-35.06,42.78-42.77-19.55-7.71-35.06-23.23-42.78-42.77-7.71,19.55-23.23,35.06-42.78,42.77,19.55,7.71,35.06,23.23,42.78,42.77Z"/>
        <path class="cls-6" d="M1701.5,429.44c7.71-19.55,23.23-35.06,42.78-42.77-19.55-7.71-35.06-23.23-42.78-42.77-7.71,19.55-23.23,35.06-42.78,42.77,19.55,7.71,35.06,23.23,42.78,42.77Z"/>
        <path class="cls-6" d="M1594.28,429.44c7.71-19.55,23.23-35.06,42.78-42.77-19.55-7.71-35.06-23.23-42.78-42.77-7.71,19.55-23.23,35.06-42.78,42.77,19.55,7.71,35.06,23.23,42.78,42.77Z"/>
        <path class="cls-6" d="M1487.07,429.44c7.71-19.55,23.23-35.06,42.78-42.77-19.55-7.71-35.06-23.23-42.78-42.77-7.71,19.55-23.23,35.06-42.78,42.77,19.55,7.71,35.06,23.23,42.78,42.77Z"/>
        <path class="cls-6" d="M1915.93,534.92c7.71-19.55,23.23-35.06,42.78-42.77-19.55-7.71-35.06-23.23-42.78-42.77-7.71,19.55-23.23,35.06-42.78,42.77,19.55,7.71,35.06,23.23,42.78,42.77Z"/>
        <path class="cls-6" d="M1808.71,534.92c7.71-19.55,23.23-35.06,42.78-42.77-19.55-7.71-35.06-23.23-42.78-42.77-7.71,19.55-23.23,35.06-42.78,42.77,19.55,7.71,35.06,23.23,42.78,42.77Z"/>
        <path class="cls-6" d="M1915.93,640.41c7.71-19.55,23.23-35.06,42.78-42.77-19.55-7.71-35.06-23.23-42.78-42.77-7.71,19.55-23.23,35.06-42.78,42.77,19.55,7.71,35.06,23.23,42.78,42.77Z"/>
        <path class="cls-6" d="M1808.71,640.41c7.71-19.55,23.23-35.06,42.78-42.77-19.55-7.71-35.06-23.23-42.78-42.77-7.71,19.55-23.23,35.06-42.78,42.77,19.55,7.71,35.06,23.23,42.78,42.77Z"/>
        <path class="cls-6" d="M1915.93,323.95c7.71-19.55,23.23-35.06,42.78-42.77-19.55-7.71-35.06-23.23-42.78-42.77-7.71,19.55-23.23,35.06-42.78,42.77,19.55,7.71,35.06,23.23,42.78,42.77Z"/>
        <path class="cls-6" d="M1808.71,323.95c7.71-19.55,23.23-35.06,42.78-42.77-19.55-7.71-35.06-23.23-42.78-42.77-7.71,19.55-23.23,35.06-42.78,42.77,19.55,7.71,35.06,23.23,42.78,42.77Z"/>
        <path class="cls-6" d="M1915.93,429.44c7.71-19.55,23.23-35.06,42.78-42.77-19.55-7.71-35.06-23.23-42.78-42.77-7.71,19.55-23.23,35.06-42.78,42.77,19.55,7.71,35.06,23.23,42.78,42.77Z"/>
        <path class="cls-6" d="M1808.71,429.44c7.71-19.55,23.23-35.06,42.78-42.77-19.55-7.71-35.06-23.23-42.78-42.77-7.71,19.55-23.23,35.06-42.78,42.77,19.55,7.71,35.06,23.23,42.78,42.77Z"/>
        <path class="cls-6" d="M1701.5,956.86c7.71-19.55,23.23-35.06,42.78-42.77-19.55-7.71-35.06-23.23-42.78-42.77-7.71,19.55-23.23,35.06-42.78,42.77,19.55,7.71,35.06,23.23,42.78,42.77Z"/>
        <path class="cls-6" d="M1594.28,956.86c7.71-19.55,23.23-35.06,42.78-42.77-19.55-7.71-35.06-23.23-42.78-42.77-7.71,19.55-23.23,35.06-42.78,42.77,19.55,7.71,35.06,23.23,42.78,42.77Z"/>
        <path class="cls-6" d="M1487.07,956.86c7.71-19.55,23.23-35.06,42.78-42.77-19.55-7.71-35.06-23.23-42.78-42.77-7.71,19.55-23.23,35.06-42.78,42.77,19.55,7.71,35.06,23.23,42.78,42.77Z"/>
        <path class="cls-6" d="M1701.5,1062.34c7.71-19.55,23.23-35.06,42.78-42.77-19.55-7.71-35.06-23.23-42.78-42.77-7.71,19.55-23.23,35.06-42.78,42.77,19.55,7.71,35.06,23.23,42.78,42.77Z"/>
        <path class="cls-6" d="M1594.28,1062.34c7.71-19.55,23.23-35.06,42.78-42.77-19.55-7.71-35.06-23.23-42.78-42.77-7.71,19.55-23.23,35.06-42.78,42.77,19.55,7.71,35.06,23.23,42.78,42.77Z"/>
        <path class="cls-6" d="M1487.07,1062.34c7.71-19.55,23.23-35.06,42.78-42.77-19.55-7.71-35.06-23.23-42.78-42.77-7.71,19.55-23.23,35.06-42.78,42.77,19.55,7.71,35.06,23.23,42.78,42.77Z"/>
        <path class="cls-6" d="M1701.5,745.89c7.71-19.55,23.23-35.06,42.78-42.77-19.55-7.71-35.06-23.23-42.78-42.77-7.71,19.55-23.23,35.06-42.78,42.77,19.55,7.71,35.06,23.23,42.78,42.77Z"/>
        <path class="cls-6" d="M1594.28,745.89c7.71-19.55,23.23-35.06,42.78-42.77-19.55-7.71-35.06-23.23-42.78-42.77-7.71,19.55-23.23,35.06-42.78,42.77,19.55,7.71,35.06,23.23,42.78,42.77Z"/>
        <path class="cls-6" d="M1487.07,745.89c7.71-19.55,23.23-35.06,42.78-42.77-19.55-7.71-35.06-23.23-42.78-42.77-7.71,19.55-23.23,35.06-42.78,42.77,19.55,7.71,35.06,23.23,42.78,42.77Z"/>
        <path class="cls-6" d="M1701.5,851.37c7.71-19.55,23.23-35.06,42.78-42.77-19.55-7.71-35.06-23.23-42.78-42.77-7.71,19.55-23.23,35.06-42.78,42.77,19.55,7.71,35.06,23.23,42.78,42.77Z"/>
        <path class="cls-6" d="M1594.28,851.37c7.71-19.55,23.23-35.06,42.78-42.77-19.55-7.71-35.06-23.23-42.78-42.77-7.71,19.55-23.23,35.06-42.78,42.77,19.55,7.71,35.06,23.23,42.78,42.77Z"/>
        <path class="cls-6" d="M1487.07,851.37c7.71-19.55,23.23-35.06,42.78-42.77-19.55-7.71-35.06-23.23-42.78-42.77-7.71,19.55-23.23,35.06-42.78,42.77,19.55,7.71,35.06,23.23,42.78,42.77Z"/>
        <path class="cls-6" d="M1915.93,956.86c7.71-19.55,23.23-35.06,42.78-42.77-19.55-7.71-35.06-23.23-42.78-42.77-7.71,19.55-23.23,35.06-42.78,42.77,19.55,7.71,35.06,23.23,42.78,42.77Z"/>
        <path class="cls-6" d="M1808.71,956.86c7.71-19.55,23.23-35.06,42.78-42.77-19.55-7.71-35.06-23.23-42.78-42.77-7.71,19.55-23.23,35.06-42.78,42.77,19.55,7.71,35.06,23.23,42.78,42.77Z"/>
        <path class="cls-6" d="M1915.93,1062.34c7.71-19.55,23.23-35.06,42.78-42.77-19.55-7.71-35.06-23.23-42.78-42.77-7.71,19.55-23.23,35.06-42.78,42.77,19.55,7.71,35.06,23.23,42.78,42.77Z"/>
        <path class="cls-6" d="M1808.71,1062.34c7.71-19.55,23.23-35.06,42.78-42.77-19.55-7.71-35.06-23.23-42.78-42.77-7.71,19.55-23.23,35.06-42.78,42.77,19.55,7.71,35.06,23.23,42.78,42.77Z"/>
        <path class="cls-6" d="M1915.93,745.89c7.71-19.55,23.23-35.06,42.78-42.77-19.55-7.71-35.06-23.23-42.78-42.77-7.71,19.55-23.23,35.06-42.78,42.77,19.55,7.71,35.06,23.23,42.78,42.77Z"/>
        <path class="cls-6" d="M1808.71,745.89c7.71-19.55,23.23-35.06,42.78-42.77-19.55-7.71-35.06-23.23-42.78-42.77-7.71,19.55-23.23,35.06-42.78,42.77,19.55,7.71,35.06,23.23,42.78,42.77Z"/>
        <path class="cls-6" d="M1915.93,851.37c7.71-19.55,23.23-35.06,42.78-42.77-19.55-7.71-35.06-23.23-42.78-42.77-7.71,19.55-23.23,35.06-42.78,42.77,19.55,7.71,35.06,23.23,42.78,42.77Z"/>
        <path class="cls-6" d="M1808.71,851.37c7.71-19.55,23.23-35.06,42.78-42.77-19.55-7.71-35.06-23.23-42.78-42.77-7.71,19.55-23.23,35.06-42.78,42.77,19.55,7.71,35.06,23.23,42.78,42.77Z"/>
        <path class="cls-6" d="M1701.5,111.78c7.71-19.55,23.23-35.06,42.78-42.77-19.55-7.71-35.06-23.23-42.78-42.77-7.71,19.55-23.23,35.06-42.78,42.77,19.55,7.71,35.06,23.23,42.78,42.77Z"/>
        <path class="cls-6" d="M1594.28,111.78c7.71-19.55,23.23-35.06,42.78-42.77-19.55-7.71-35.06-23.23-42.78-42.77-7.71,19.55-23.23,35.06-42.78,42.77,19.55,7.71,35.06,23.23,42.78,42.77Z"/>
        <path class="cls-6" d="M1487.07,111.78c7.71-19.55,23.23-35.06,42.78-42.77-19.55-7.71-35.06-23.23-42.78-42.77-7.71,19.55-23.23,35.06-42.78,42.77,19.55,7.71,35.06,23.23,42.78,42.77Z"/>
        <path class="cls-6" d="M1701.5,217.26c7.71-19.55,23.23-35.06,42.78-42.77-19.55-7.71-35.06-23.23-42.78-42.77-7.71,19.55-23.23,35.06-42.78,42.77,19.55,7.71,35.06,23.23,42.78,42.77Z"/>
        <path class="cls-6" d="M1594.28,217.26c7.71-19.55,23.23-35.06,42.78-42.77-19.55-7.71-35.06-23.23-42.78-42.77-7.71,19.55-23.23,35.06-42.78,42.77,19.55,7.71,35.06,23.23,42.78,42.77Z"/>
        <path class="cls-6" d="M1487.07,217.26c7.71-19.55,23.23-35.06,42.78-42.77-19.55-7.71-35.06-23.23-42.78-42.77-7.71,19.55-23.23,35.06-42.78,42.77,19.55,7.71,35.06,23.23,42.78,42.77Z"/>
        <path class="cls-6" d="M1915.93,111.78c7.71-19.55,23.23-35.06,42.78-42.77-19.55-7.71-35.06-23.23-42.78-42.77-7.71,19.55-23.23,35.06-42.78,42.77,19.55,7.71,35.06,23.23,42.78,42.77Z"/>
        <path class="cls-6" d="M1808.71,111.78c7.71-19.55,23.23-35.06,42.78-42.77-19.55-7.71-35.06-23.23-42.78-42.77-7.71,19.55-23.23,35.06-42.78,42.77,19.55,7.71,35.06,23.23,42.78,42.77Z"/>
        <path class="cls-6" d="M1915.93,217.26c7.71-19.55,23.23-35.06,42.78-42.77-19.55-7.71-35.06-23.23-42.78-42.77-7.71,19.55-23.23,35.06-42.78,42.77,19.55,7.71,35.06,23.23,42.78,42.77Z"/>
        <path class="cls-6" d="M1808.71,217.26c7.71-19.55,23.23-35.06,42.78-42.77-19.55-7.71-35.06-23.23-42.78-42.77-7.71,19.55-23.23,35.06-42.78,42.77,19.55,7.71,35.06,23.23,42.78,42.77Z"/>
      </g>
    </g>
  </g>
  <text class="cls-3" transform="translate(77.27 321.42)"><tspan x="0" y="0">SUMMER</tspan></text>
  <text class="cls-2" transform="translate(93.72 504.22)"><tspan class="cls-14" x="0" y="0">T</tspan><tspan class="cls-20" x="115.95" y="0">he </tspan><tspan class="cls-21" x="311.24" y="0">s</tspan><tspan class="cls-17" x="381.9" y="0">e</tspan><tspan class="cls-18" x="453.69" y="0">a</tspan><tspan class="cls-22" x="550.68" y="0">s</tspan><tspan class="cls-19" x="621.35" y="0">on </tspan><tspan class="cls-15" x="0" y="192.72">o</tspan><tspan class="cls-20" x="80.62" y="192.72">f </tspan><tspan class="cls-13" x="166.7" y="192.72">g</tspan><tspan class="cls-9" x="245.71" y="192.72">r</tspan><tspan class="cls-11" x="317.18" y="192.72">o</tspan><tspan class="cls-19" x="396.51" y="192.72">wth</tspan><tspan class="cls-12" x="656.52" y="192.72">.</tspan></text>
  <text class="cls-7" transform="translate(155.2 843.01)"><tspan x="0" y="0" xml:space="preserve">tracking    </tspan><tspan class="cls-10" x="354.52" y="0">b</tspan><tspan x="392.89" y="0" xml:space="preserve">looming    mai</tspan><tspan class="cls-10" x="846.7" y="0">n</tspan><tspan class="cls-8" x="883.92" y="0">t</tspan><tspan x="908.55" y="0">enance</tspan></text>
  <path class="cls-4" d="M120.31,799.84c-4.4,10.31-12.87,18.47-23.38,22.46,10.51,4,18.98,12.16,23.38,22.46,4.4-10.31,12.87-18.47,23.38-22.46-10.51-4-18.98-12.16-23.38-22.46Z"/>
  <path class="cls-4" d="M474.61,799.84c-4.4,10.31-12.87,18.47-23.38,22.46,10.51,4,18.98,12.16,23.38,22.46,4.4-10.31,12.87-18.47,23.38-22.46-10.51-4-18.98-12.16-23.38-22.46Z"/>
  <path class="cls-4" d="M856.86,799.84c-4.4,10.31-12.87,18.47-23.38,22.46,10.51,4,18.98,12.16,23.38,22.46,4.4-10.31,12.87-18.47,23.38-22.46-10.51-4-18.98-12.16-23.38-22.46Z"/>
</svg>