<?xml version="1.0" encoding="UTF-8"?>
<svg id="Layer_1" data-name="Layer 1" xmlns="http://www.w3.org/2000/svg" viewBox="0 0 1920 1080">
  <defs>
    <style>
      .cls-1 {
        fill: #00b86c;
      }

      .cls-2 {
        fill: #004330;
      }

      .cls-3 {
        fill: #004231;
      }
    </style>
  </defs>
  <g>
    <g>
      <path class="cls-2" d="M56.88,582.1c7.71-19.55,23.23-35.06,42.78-42.77-19.55-7.71-35.06-23.23-42.78-42.77-7.71,19.55-23.23,35.06-42.78,42.77,19.55,7.71,35.06,23.23,42.78,42.77Z"/>
      <path class="cls-2" d="M56.88,371.14c7.71-19.55,23.23-35.06,42.78-42.77-19.55-7.71-35.06-23.23-42.78-42.77-7.71,19.55-23.23,35.06-42.78,42.77,19.55,7.71,35.06,23.23,42.78,42.77Z"/>
      <path class="cls-2" d="M56.88,476.62c7.71-19.55,23.23-35.06,42.78-42.77-19.55-7.71-35.06-23.23-42.78-42.77-7.71,19.55-23.23,35.06-42.78,42.77,19.55,7.71,35.06,23.23,42.78,42.77Z"/>
      <path class="cls-2" d="M56.88,687.59c7.71-19.55,23.23-35.06,42.78-42.77-19.55-7.71-35.06-23.23-42.78-42.77-7.71,19.55-23.23,35.06-42.78,42.77,19.55,7.71,35.06,23.23,42.78,42.77Z"/>
      <path class="cls-2" d="M56.88,1004.04c7.71-19.55,23.23-35.06,42.78-42.77-19.55-7.71-35.06-23.23-42.78-42.77-7.71,19.55-23.23,35.06-42.78,42.77,19.55,7.71,35.06,23.23,42.78,42.77Z"/>
      <path class="cls-2" d="M56.88,793.07c7.71-19.55,23.23-35.06,42.78-42.77-19.55-7.71-35.06-23.23-42.78-42.77-7.71,19.55-23.23,35.06-42.78,42.77,19.55,7.71,35.06,23.23,42.78,42.77Z"/>
      <path class="cls-2" d="M56.88,898.55c7.71-19.55,23.23-35.06,42.78-42.77-19.55-7.71-35.06-23.23-42.78-42.77-7.71,19.55-23.23,35.06-42.78,42.77,19.55,7.71,35.06,23.23,42.78,42.77Z"/>
      <path class="cls-2" d="M161.91,582.1c7.71-19.55,23.23-35.06,42.78-42.77-19.55-7.71-35.06-23.23-42.78-42.77-7.71,19.55-23.23,35.06-42.78,42.77,19.55,7.71,35.06,23.23,42.78,42.77Z"/>
      <path class="cls-2" d="M161.91,371.14c7.71-19.55,23.23-35.06,42.78-42.77-19.55-7.71-35.06-23.23-42.78-42.77-7.71,19.55-23.23,35.06-42.78,42.77,19.55,7.71,35.06,23.23,42.78,42.77Z"/>
      <path class="cls-2" d="M161.91,476.62c7.71-19.55,23.23-35.06,42.78-42.77-19.55-7.71-35.06-23.23-42.78-42.77-7.71,19.55-23.23,35.06-42.78,42.77,19.55,7.71,35.06,23.23,42.78,42.77Z"/>
      <path class="cls-2" d="M161.91,687.59c7.71-19.55,23.23-35.06,42.78-42.77-19.55-7.71-35.06-23.23-42.78-42.77-7.71,19.55-23.23,35.06-42.78,42.77,19.55,7.71,35.06,23.23,42.78,42.77Z"/>
      <path class="cls-2" d="M161.91,1004.04c7.71-19.55,23.23-35.06,42.78-42.77-19.55-7.71-35.06-23.23-42.78-42.77-7.71,19.55-23.23,35.06-42.78,42.77,19.55,7.71,35.06,23.23,42.78,42.77Z"/>
      <path class="cls-2" d="M161.91,793.07c7.71-19.55,23.23-35.06,42.78-42.77-19.55-7.71-35.06-23.23-42.78-42.77-7.71,19.55-23.23,35.06-42.78,42.77,19.55,7.71,35.06,23.23,42.78,42.77Z"/>
      <path class="cls-2" d="M161.91,898.55c7.71-19.55,23.23-35.06,42.78-42.77-19.55-7.71-35.06-23.23-42.78-42.77-7.71,19.55-23.23,35.06-42.78,42.77,19.55,7.71,35.06,23.23,42.78,42.77Z"/>
      <path class="cls-2" d="M378.53,582.1c7.71-19.55,23.23-35.06,42.78-42.77-19.55-7.71-35.06-23.23-42.78-42.77-7.71,19.55-23.23,35.06-42.78,42.77,19.55,7.71,35.06,23.23,42.78,42.77Z"/>
      <path class="cls-2" d="M266.94,582.1c7.71-19.55,23.23-35.06,42.78-42.77-19.55-7.71-35.06-23.23-42.78-42.77-7.71,19.55-23.23,35.06-42.78,42.77,19.55,7.71,35.06,23.23,42.78,42.77Z"/>
      <path class="cls-2" d="M378.53,371.14c7.71-19.55,23.23-35.06,42.78-42.77-19.55-7.71-35.06-23.23-42.78-42.77-7.71,19.55-23.23,35.06-42.78,42.77,19.55,7.71,35.06,23.23,42.78,42.77Z"/>
      <path class="cls-2" d="M266.94,371.14c7.71-19.55,23.23-35.06,42.78-42.77-19.55-7.71-35.06-23.23-42.78-42.77-7.71,19.55-23.23,35.06-42.78,42.77,19.55,7.71,35.06,23.23,42.78,42.77Z"/>
      <path class="cls-2" d="M378.53,476.62c7.71-19.55,23.23-35.06,42.78-42.77-19.55-7.71-35.06-23.23-42.78-42.77-7.71,19.55-23.23,35.06-42.78,42.77,19.55,7.71,35.06,23.23,42.78,42.77Z"/>
      <path class="cls-2" d="M266.94,476.62c7.71-19.55,23.23-35.06,42.78-42.77-19.55-7.71-35.06-23.23-42.78-42.77-7.71,19.55-23.23,35.06-42.78,42.77,19.55,7.71,35.06,23.23,42.78,42.77Z"/>
      <path class="cls-2" d="M378.53,687.59c7.71-19.55,23.23-35.06,42.78-42.77-19.55-7.71-35.06-23.23-42.78-42.77-7.71,19.55-23.23,35.06-42.78,42.77,19.55,7.71,35.06,23.23,42.78,42.77Z"/>
      <path class="cls-2" d="M266.94,687.59c7.71-19.55,23.23-35.06,42.78-42.77-19.55-7.71-35.06-23.23-42.78-42.77-7.71,19.55-23.23,35.06-42.78,42.77,19.55,7.71,35.06,23.23,42.78,42.77Z"/>
      <path class="cls-2" d="M56.88,158.96c7.71-19.55,23.23-35.06,42.78-42.77-19.55-7.71-35.06-23.23-42.78-42.77-7.71,19.55-23.23,35.06-42.78,42.77,19.55,7.71,35.06,23.23,42.78,42.77Z"/>
      <path class="cls-2" d="M56.88,264.44c7.71-19.55,23.23-35.06,42.78-42.77-19.55-7.71-35.06-23.23-42.78-42.77-7.71,19.55-23.23,35.06-42.78,42.77,19.55,7.71,35.06,23.23,42.78,42.77Z"/>
      <path class="cls-2" d="M161.91,158.96c7.71-19.55,23.23-35.06,42.78-42.77-19.55-7.71-35.06-23.23-42.78-42.77-7.71,19.55-23.23,35.06-42.78,42.77,19.55,7.71,35.06,23.23,42.78,42.77Z"/>
      <path class="cls-2" d="M161.91,264.44c7.71-19.55,23.23-35.06,42.78-42.77-19.55-7.71-35.06-23.23-42.78-42.77-7.71,19.55-23.23,35.06-42.78,42.77,19.55,7.71,35.06,23.23,42.78,42.77Z"/>
      <path class="cls-2" d="M378.52,158.96c7.71-19.55,23.23-35.06,42.78-42.77-19.55-7.71-35.06-23.23-42.78-42.77-7.71,19.55-23.23,35.06-42.78,42.77,19.55,7.71,35.06,23.23,42.78,42.77Z"/>
      <path class="cls-2" d="M266.94,158.96c7.71-19.55,23.23-35.06,42.78-42.77-19.55-7.71-35.06-23.23-42.78-42.77-7.71,19.55-23.23,35.06-42.78,42.77,19.55,7.71,35.06,23.23,42.78,42.77Z"/>
      <path class="cls-2" d="M378.53,264.44c7.71-19.55,23.23-35.06,42.78-42.77-19.55-7.71-35.06-23.23-42.78-42.77-7.71,19.55-23.23,35.06-42.78,42.77,19.55,7.71,35.06,23.23,42.78,42.77Z"/>
      <path class="cls-2" d="M266.94,264.44c7.71-19.55,23.23-35.06,42.78-42.77-19.55-7.71-35.06-23.23-42.78-42.77-7.71,19.55-23.23,35.06-42.78,42.77,19.55,7.71,35.06,23.23,42.78,42.77Z"/>
      <path class="cls-2" d="M378.53,1004.04c7.71-19.55,23.23-35.06,42.78-42.77-19.55-7.71-35.06-23.23-42.78-42.77-7.71,19.55-23.23,35.06-42.78,42.77,19.55,7.71,35.06,23.23,42.78,42.77Z"/>
      <path class="cls-2" d="M266.94,1004.04c7.71-19.55,23.23-35.06,42.78-42.77-19.55-7.71-35.06-23.23-42.78-42.77-7.71,19.55-23.23,35.06-42.78,42.77,19.55,7.71,35.06,23.23,42.78,42.77Z"/>
      <path class="cls-2" d="M378.53,793.07c7.71-19.55,23.23-35.06,42.78-42.77-19.55-7.71-35.06-23.23-42.78-42.77-7.71,19.55-23.23,35.06-42.78,42.77,19.55,7.71,35.06,23.23,42.78,42.77Z"/>
      <path class="cls-2" d="M266.94,793.07c7.71-19.55,23.23-35.06,42.78-42.77-19.55-7.71-35.06-23.23-42.78-42.77-7.71,19.55-23.23,35.06-42.78,42.77,19.55,7.71,35.06,23.23,42.78,42.77Z"/>
      <path class="cls-2" d="M378.53,898.55c7.71-19.55,23.23-35.06,42.78-42.77-19.55-7.71-35.06-23.23-42.78-42.77-7.71,19.55-23.23,35.06-42.78,42.77,19.55,7.71,35.06,23.23,42.78,42.77Z"/>
      <path class="cls-2" d="M266.94,898.55c7.71-19.55,23.23-35.06,42.78-42.77-19.55-7.71-35.06-23.23-42.78-42.77-7.71,19.55-23.23,35.06-42.78,42.77,19.55,7.71,35.06,23.23,42.78,42.77Z"/>
      <path class="cls-2" d="M490.11,582.1c7.71-19.55,23.23-35.06,42.78-42.77-19.55-7.71-35.06-23.23-42.78-42.77-7.71,19.55-23.23,35.06-42.78,42.77,19.55,7.71,35.06,23.23,42.78,42.77Z"/>
      <path class="cls-2" d="M490.11,371.14c7.71-19.55,23.23-35.06,42.78-42.77-19.55-7.71-35.06-23.23-42.78-42.77-7.71,19.55-23.23,35.06-42.78,42.77,19.55,7.71,35.06,23.23,42.78,42.77Z"/>
      <path class="cls-2" d="M490.11,476.62c7.71-19.55,23.23-35.06,42.78-42.77-19.55-7.71-35.06-23.23-42.78-42.77-7.71,19.55-23.23,35.06-42.78,42.77,19.55,7.71,35.06,23.23,42.78,42.77Z"/>
      <path class="cls-2" d="M490.11,687.59c7.71-19.55,23.23-35.06,42.78-42.77-19.55-7.71-35.06-23.23-42.78-42.77-7.71,19.55-23.23,35.06-42.78,42.77,19.55,7.71,35.06,23.23,42.78,42.77Z"/>
      <path class="cls-2" d="M490.11,158.96c7.71-19.55,23.23-35.06,42.78-42.77-19.55-7.71-35.06-23.23-42.78-42.77-7.71,19.55-23.23,35.06-42.78,42.77,19.55,7.71,35.06,23.23,42.78,42.77Z"/>
      <path class="cls-2" d="M490.11,264.44c7.71-19.55,23.23-35.06,42.78-42.77-19.55-7.71-35.06-23.23-42.78-42.77-7.71,19.55-23.23,35.06-42.78,42.77,19.55,7.71,35.06,23.23,42.78,42.77Z"/>
      <path class="cls-2" d="M490.11,1004.04c7.71-19.55,23.23-35.06,42.78-42.77-19.55-7.71-35.06-23.23-42.78-42.77-7.71,19.55-23.23,35.06-42.78,42.77,19.55,7.71,35.06,23.23,42.78,42.77Z"/>
      <path class="cls-2" d="M490.11,793.07c7.71-19.55,23.23-35.06,42.78-42.77-19.55-7.71-35.06-23.23-42.78-42.77-7.71,19.55-23.23,35.06-42.78,42.77,19.55,7.71,35.06,23.23,42.78,42.77Z"/>
      <path class="cls-2" d="M490.11,898.55c7.71-19.55,23.23-35.06,42.78-42.77-19.55-7.71-35.06-23.23-42.78-42.77-7.71,19.55-23.23,35.06-42.78,42.77,19.55,7.71,35.06,23.23,42.78,42.77Z"/>
    </g>
    <g>
      <path class="cls-1" d="M108.3,530.64c7.71-19.55,23.23-35.06,42.78-42.77-19.55-7.71-35.06-23.23-42.78-42.77-7.71,19.55-23.23,35.06-42.78,42.77,19.55,7.71,35.06,23.23,42.78,42.77Z"/>
      <path class="cls-1" d="M1.09,530.64c7.71-19.55,23.23-35.06,42.78-42.77-19.55-7.71-35.06-23.23-42.78-42.77-7.71,19.55-23.23,35.06-42.78,42.77,19.55,7.71,35.06,23.23,42.78,42.77Z"/>
      <path class="cls-1" d="M108.3,636.12c7.71-19.55,23.23-35.06,42.78-42.77-19.55-7.71-35.06-23.23-42.78-42.77-7.71,19.55-23.23,35.06-42.78,42.77,19.55,7.71,35.06,23.23,42.78,42.77Z"/>
      <path class="cls-1" d="M1.09,636.12c7.71-19.55,23.23-35.06,42.78-42.77-19.55-7.71-35.06-23.23-42.78-42.77-7.71,19.55-23.23,35.06-42.78,42.77,19.55,7.71,35.06,23.23,42.78,42.77Z"/>
      <path class="cls-1" d="M108.3,319.67c7.71-19.55,23.23-35.06,42.78-42.77-19.55-7.71-35.06-23.23-42.78-42.77-7.71,19.55-23.23,35.06-42.78,42.77,19.55,7.71,35.06,23.23,42.78,42.77Z"/>
      <path class="cls-1" d="M1.09,319.67c7.71-19.55,23.23-35.06,42.78-42.77-19.55-7.71-35.06-23.23-42.78-42.77-7.71,19.55-23.23,35.06-42.78,42.77,19.55,7.71,35.06,23.23,42.78,42.77Z"/>
      <path class="cls-1" d="M108.3,425.15c7.71-19.55,23.23-35.06,42.78-42.77-19.55-7.71-35.06-23.23-42.78-42.77-7.71,19.55-23.23,35.06-42.78,42.77,19.55,7.71,35.06,23.23,42.78,42.77Z"/>
      <path class="cls-1" d="M1.09,425.15c7.71-19.55,23.23-35.06,42.78-42.77-19.55-7.71-35.06-23.23-42.78-42.77-7.71,19.55-23.23,35.06-42.78,42.77,19.55,7.71,35.06,23.23,42.78,42.77Z"/>
      <path class="cls-1" d="M108.3,952.57c7.71-19.55,23.23-35.06,42.78-42.77-19.55-7.71-35.06-23.23-42.78-42.77-7.71,19.55-23.23,35.06-42.78,42.77,19.55,7.71,35.06,23.23,42.78,42.77Z"/>
      <path class="cls-1" d="M1.09,952.57c7.71-19.55,23.23-35.06,42.78-42.77-19.55-7.71-35.06-23.23-42.78-42.77-7.71,19.55-23.23,35.06-42.78,42.77,19.55,7.71,35.06,23.23,42.78,42.77Z"/>
      <path class="cls-1" d="M108.3,1058.05c7.71-19.55,23.23-35.06,42.78-42.77-19.55-7.71-35.06-23.23-42.78-42.77-7.71,19.55-23.23,35.06-42.78,42.77,19.55,7.71,35.06,23.23,42.78,42.77Z"/>
      <path class="cls-1" d="M1.09,1058.05c7.71-19.55,23.23-35.06,42.78-42.77-19.55-7.71-35.06-23.23-42.78-42.77-7.71,19.55-23.23,35.06-42.78,42.77,19.55,7.71,35.06,23.23,42.78,42.77Z"/>
      <path class="cls-1" d="M108.3,741.6c7.71-19.55,23.23-35.06,42.78-42.77-19.55-7.71-35.06-23.23-42.78-42.77-7.71,19.55-23.23,35.06-42.78,42.77,19.55,7.71,35.06,23.23,42.78,42.77Z"/>
      <path class="cls-1" d="M1.09,741.6c7.71-19.55,23.23-35.06,42.78-42.77-19.55-7.71-35.06-23.23-42.78-42.77-7.71,19.55-23.23,35.06-42.78,42.77,19.55,7.71,35.06,23.23,42.78,42.77Z"/>
      <path class="cls-1" d="M108.3,847.09c7.71-19.55,23.23-35.06,42.78-42.77-19.55-7.71-35.06-23.23-42.78-42.77-7.71,19.55-23.23,35.06-42.78,42.77,19.55,7.71,35.06,23.23,42.78,42.77Z"/>
      <path class="cls-1" d="M1.09,847.09c7.71-19.55,23.23-35.06,42.78-42.77-19.55-7.71-35.06-23.23-42.78-42.77-7.71,19.55-23.23,35.06-42.78,42.77,19.55,7.71,35.06,23.23,42.78,42.77Z"/>
      <path class="cls-1" d="M429.95,530.64c7.71-19.55,23.23-35.06,42.78-42.77-19.55-7.71-35.06-23.23-42.78-42.77-7.71,19.55-23.23,35.06-42.78,42.77,19.55,7.71,35.06,23.23,42.78,42.77Z"/>
      <path class="cls-1" d="M322.73,530.64c7.71-19.55,23.23-35.06,42.78-42.77-19.55-7.71-35.06-23.23-42.78-42.77-7.71,19.55-23.23,35.06-42.78,42.77,19.55,7.71,35.06,23.23,42.78,42.77Z"/>
      <path class="cls-1" d="M215.52,530.64c7.71-19.55,23.23-35.06,42.78-42.77-19.55-7.71-35.06-23.23-42.78-42.77-7.71,19.55-23.23,35.06-42.78,42.77,19.55,7.71,35.06,23.23,42.78,42.77Z"/>
      <path class="cls-1" d="M429.95,636.12c7.71-19.55,23.23-35.06,42.78-42.77-19.55-7.71-35.06-23.23-42.78-42.77-7.71,19.55-23.23,35.06-42.78,42.77,19.55,7.71,35.06,23.23,42.78,42.77Z"/>
      <path class="cls-1" d="M322.73,636.12c7.71-19.55,23.23-35.06,42.78-42.77-19.55-7.71-35.06-23.23-42.78-42.77-7.71,19.55-23.23,35.06-42.78,42.77,19.55,7.71,35.06,23.23,42.78,42.77Z"/>
      <path class="cls-1" d="M215.52,636.12c7.71-19.55,23.23-35.06,42.78-42.77-19.55-7.71-35.06-23.23-42.78-42.77-7.71,19.55-23.23,35.06-42.78,42.77,19.55,7.71,35.06,23.23,42.78,42.77Z"/>
      <path class="cls-1" d="M429.95,319.67c7.71-19.55,23.23-35.06,42.78-42.77-19.55-7.71-35.06-23.23-42.78-42.77-7.71,19.55-23.23,35.06-42.78,42.77,19.55,7.71,35.06,23.23,42.78,42.77Z"/>
      <path class="cls-1" d="M322.73,319.67c7.71-19.55,23.23-35.06,42.78-42.77-19.55-7.71-35.06-23.23-42.78-42.77-7.71,19.55-23.23,35.06-42.78,42.77,19.55,7.71,35.06,23.23,42.78,42.77Z"/>
      <path class="cls-1" d="M215.52,319.67c7.71-19.55,23.23-35.06,42.78-42.77-19.55-7.71-35.06-23.23-42.78-42.77-7.71,19.55-23.23,35.06-42.78,42.77,19.55,7.71,35.06,23.23,42.78,42.77Z"/>
      <path class="cls-1" d="M429.95,425.15c7.71-19.55,23.23-35.06,42.78-42.77-19.55-7.71-35.06-23.23-42.78-42.77-7.71,19.55-23.23,35.06-42.78,42.77,19.55,7.71,35.06,23.23,42.78,42.77Z"/>
      <path class="cls-1" d="M322.73,425.15c7.71-19.55,23.23-35.06,42.78-42.77-19.55-7.71-35.06-23.23-42.78-42.77-7.71,19.55-23.23,35.06-42.78,42.77,19.55,7.71,35.06,23.23,42.78,42.77Z"/>
      <path class="cls-1" d="M215.52,425.15c7.71-19.55,23.23-35.06,42.78-42.77-19.55-7.71-35.06-23.23-42.78-42.77-7.71,19.55-23.23,35.06-42.78,42.77,19.55,7.71,35.06,23.23,42.78,42.77Z"/>
      <path class="cls-1" d="M108.3,107.49c7.71-19.55,23.23-35.06,42.78-42.77-19.55-7.71-35.06-23.23-42.78-42.77-7.71,19.55-23.23,35.06-42.78,42.77,19.55,7.71,35.06,23.23,42.78,42.77Z"/>
      <path class="cls-1" d="M1.09,107.49c7.71-19.55,23.23-35.06,42.78-42.77C24.31,57.01,8.8,41.49,1.09,21.95c-7.71,19.55-23.23,35.06-42.78,42.77C-22.14,72.43-6.62,87.95,1.09,107.49Z"/>
      <path class="cls-1" d="M108.3,212.98c7.71-19.55,23.23-35.06,42.78-42.77-19.55-7.71-35.06-23.23-42.78-42.77-7.71,19.55-23.23,35.06-42.78,42.77,19.55,7.71,35.06,23.23,42.78,42.77Z"/>
      <path class="cls-1" d="M1.09,212.98c7.71-19.55,23.23-35.06,42.78-42.77-19.55-7.71-35.06-23.23-42.78-42.77-7.71,19.55-23.23,35.06-42.78,42.77,19.55,7.71,35.06,23.23,42.78,42.77Z"/>
      <path class="cls-1" d="M429.95,107.5c7.71-19.55,23.23-35.06,42.78-42.77-19.55-7.71-35.06-23.23-42.78-42.77-7.71,19.55-23.23,35.06-42.78,42.77,19.55,7.71,35.06,23.23,42.78,42.77Z"/>
      <path class="cls-1" d="M322.73,107.49c7.71-19.55,23.23-35.06,42.78-42.77-19.55-7.71-35.06-23.23-42.78-42.77-7.71,19.55-23.23,35.06-42.78,42.77,19.55,7.71,35.06,23.23,42.78,42.77Z"/>
      <path class="cls-1" d="M215.52,107.49c7.71-19.55,23.23-35.06,42.78-42.77-19.55-7.71-35.06-23.23-42.78-42.77-7.71,19.55-23.23,35.06-42.78,42.77,19.55,7.71,35.06,23.23,42.78,42.77Z"/>
      <path class="cls-1" d="M429.95,212.98c7.71-19.55,23.23-35.06,42.78-42.77-19.55-7.71-35.06-23.23-42.78-42.77-7.71,19.55-23.23,35.06-42.78,42.77,19.55,7.71,35.06,23.23,42.78,42.77Z"/>
      <path class="cls-1" d="M322.73,212.98c7.71-19.55,23.23-35.06,42.78-42.77-19.55-7.71-35.06-23.23-42.78-42.77-7.71,19.55-23.23,35.06-42.78,42.77,19.55,7.71,35.06,23.23,42.78,42.77Z"/>
      <path class="cls-1" d="M215.52,212.98c7.71-19.55,23.23-35.06,42.78-42.77-19.55-7.71-35.06-23.23-42.78-42.77-7.71,19.55-23.23,35.06-42.78,42.77,19.55,7.71,35.06,23.23,42.78,42.77Z"/>
      <path class="cls-1" d="M429.95,952.57c7.71-19.55,23.23-35.06,42.78-42.77-19.55-7.71-35.06-23.23-42.78-42.77-7.71,19.55-23.23,35.06-42.78,42.77,19.55,7.71,35.06,23.23,42.78,42.77Z"/>
      <path class="cls-1" d="M322.73,952.57c7.71-19.55,23.23-35.06,42.78-42.77-19.55-7.71-35.06-23.23-42.78-42.77-7.71,19.55-23.23,35.06-42.78,42.77,19.55,7.71,35.06,23.23,42.78,42.77Z"/>
      <path class="cls-1" d="M215.52,952.57c7.71-19.55,23.23-35.06,42.78-42.77-19.55-7.71-35.06-23.23-42.78-42.77-7.71,19.55-23.23,35.06-42.78,42.77,19.55,7.71,35.06,23.23,42.78,42.77Z"/>
      <path class="cls-1" d="M429.95,1058.06c7.71-19.55,23.23-35.06,42.78-42.77-19.55-7.71-35.06-23.23-42.78-42.77-7.71,19.55-23.23,35.06-42.78,42.77,19.55,7.71,35.06,23.23,42.78,42.77Z"/>
      <path class="cls-1" d="M322.73,1058.05c7.71-19.55,23.23-35.06,42.78-42.77-19.55-7.71-35.06-23.23-42.78-42.77-7.71,19.55-23.23,35.06-42.78,42.77,19.55,7.71,35.06,23.23,42.78,42.77Z"/>
      <path class="cls-1" d="M215.52,1058.05c7.71-19.55,23.23-35.06,42.78-42.77-19.55-7.71-35.06-23.23-42.78-42.77-7.71,19.55-23.23,35.06-42.78,42.77,19.55,7.71,35.06,23.23,42.78,42.77Z"/>
      <path class="cls-1" d="M429.95,741.6c7.71-19.55,23.23-35.06,42.78-42.77-19.55-7.71-35.06-23.23-42.78-42.77-7.71,19.55-23.23,35.06-42.78,42.77,19.55,7.71,35.06,23.23,42.78,42.77Z"/>
      <path class="cls-1" d="M322.73,741.6c7.71-19.55,23.23-35.06,42.78-42.77-19.55-7.71-35.06-23.23-42.78-42.77-7.71,19.55-23.23,35.06-42.78,42.77,19.55,7.71,35.06,23.23,42.78,42.77Z"/>
      <path class="cls-1" d="M215.52,741.6c7.71-19.55,23.23-35.06,42.78-42.77-19.55-7.71-35.06-23.23-42.78-42.77-7.71,19.55-23.23,35.06-42.78,42.77,19.55,7.71,35.06,23.23,42.78,42.77Z"/>
      <path class="cls-1" d="M429.95,847.09c7.71-19.55,23.23-35.06,42.78-42.77-19.55-7.71-35.06-23.23-42.78-42.77-7.71,19.55-23.23,35.06-42.78,42.77,19.55,7.71,35.06,23.23,42.78,42.77Z"/>
      <path class="cls-1" d="M541.53,530.64c7.71-19.55,23.23-35.06,42.78-42.77-19.55-7.71-35.06-23.23-42.78-42.77-7.71,19.55-23.23,35.06-42.78,42.77,19.55,7.71,35.06,23.23,42.78,42.77Z"/>
      <path class="cls-1" d="M541.53,636.12c7.71-19.55,23.23-35.06,42.78-42.77-19.55-7.71-35.06-23.23-42.78-42.77-7.71,19.55-23.23,35.06-42.78,42.77,19.55,7.71,35.06,23.23,42.78,42.77Z"/>
      <path class="cls-1" d="M541.53,319.67c7.71-19.55,23.23-35.06,42.78-42.77-19.55-7.71-35.06-23.23-42.78-42.77-7.71,19.55-23.23,35.06-42.78,42.77,19.55,7.71,35.06,23.23,42.78,42.77Z"/>
      <path class="cls-1" d="M541.53,425.15c7.71-19.55,23.23-35.06,42.78-42.77-19.55-7.71-35.06-23.23-42.78-42.77-7.71,19.55-23.23,35.06-42.78,42.77,19.55,7.71,35.06,23.23,42.78,42.77Z"/>
      <path class="cls-1" d="M541.53,107.5c7.71-19.55,23.23-35.06,42.78-42.77-19.55-7.71-35.06-23.23-42.78-42.77-7.71,19.55-23.23,35.06-42.78,42.77,19.55,7.71,35.06,23.23,42.78,42.77Z"/>
      <path class="cls-1" d="M541.53,212.98c7.71-19.55,23.23-35.06,42.78-42.77-19.55-7.71-35.06-23.23-42.78-42.77-7.71,19.55-23.23,35.06-42.78,42.77,19.55,7.71,35.06,23.23,42.78,42.77Z"/>
      <path class="cls-1" d="M541.53,952.57c7.71-19.55,23.23-35.06,42.78-42.77-19.55-7.71-35.06-23.23-42.78-42.77-7.71,19.55-23.23,35.06-42.78,42.77,19.55,7.71,35.06,23.23,42.78,42.77Z"/>
      <path class="cls-1" d="M541.53,1058.06c7.71-19.55,23.23-35.06,42.78-42.77-19.55-7.71-35.06-23.23-42.78-42.77-7.71,19.55-23.23,35.06-42.78,42.77,19.55,7.71,35.06,23.23,42.78,42.77Z"/>
      <path class="cls-1" d="M541.53,741.6c7.71-19.55,23.23-35.06,42.78-42.77-19.55-7.71-35.06-23.23-42.78-42.77-7.71,19.55-23.23,35.06-42.78,42.77,19.55,7.71,35.06,23.23,42.78,42.77Z"/>
      <path class="cls-1" d="M541.53,847.09c7.71-19.55,23.23-35.06,42.78-42.77-19.55-7.71-35.06-23.23-42.78-42.77-7.71,19.55-23.23,35.06-42.78,42.77,19.55,7.71,35.06,23.23,42.78,42.77Z"/>
      <path class="cls-1" d="M322.73,847.09c7.71-19.55,23.23-35.06,42.78-42.77-19.55-7.71-35.06-23.23-42.78-42.77-7.71,19.55-23.23,35.06-42.78,42.77,19.55,7.71,35.06,23.23,42.78,42.77Z"/>
      <path class="cls-1" d="M215.52,847.09c7.71-19.55,23.23-35.06,42.78-42.77-19.55-7.71-35.06-23.23-42.78-42.77-7.71,19.55-23.23,35.06-42.78,42.77,19.55,7.71,35.06,23.23,42.78,42.77Z"/>
    </g>
  </g>
  <path class="cls-1" d="M1321.77,548.85c20.96,0,38.01-17.04,38.01-38,0-16.05-10.03-29.73-24.13-35.29,14.09-5.56,24.13-19.24,24.13-35.29,0-20.96-17.05-38-38.01-38-16.05,0-29.72,10.03-35.29,24.12-5.56-14.09-19.24-24.12-35.29-24.12-20.96,0-38,17.04-38,38,0,16.05,10.03,29.73,24.12,35.29-14.09,5.56-24.12,19.24-24.12,35.29,0,20.96,17.04,38,38,38,9.54,0,18.16-3.65,24.83-9.47v44.53c-9.51-13.56-27.59-25.78-62.3-24.96v.08s-3.57,61.16,72.73,59.36v-.08s.04-.85.01-2.18h.03c-.03,1.33.01,2.18.01,2.18v.08c76.31,1.8,72.74-59.36,72.74-59.36v-.08c-34.72-.82-52.8,11.4-62.31,24.96v-44.53c6.68,5.82,15.29,9.46,24.83,9.46ZM1237.59,510.85c0-7.51,6.11-13.61,13.61-13.61s13.61,6.11,13.61,13.61-6.11,13.61-13.61,13.61-13.61-6.11-13.61-13.61ZM1251.2,426.67c7.5,0,13.61,6.11,13.61,13.61s-6.11,13.61-13.61,13.61-13.61-6.11-13.61-13.61,6.11-13.61,13.61-13.61ZM1286.48,454.15c3.86,9.78,11.63,17.55,21.41,21.41-9.78,3.86-17.55,11.63-21.41,21.41-3.86-9.78-11.63-17.55-21.41-21.41,9.78-3.86,17.55-11.63,21.41-21.41ZM1321.77,426.67c7.5,0,13.61,6.11,13.61,13.61s-6.11,13.61-13.61,13.61-13.61-6.11-13.61-13.61,6.11-13.61,13.61-13.61ZM1308.16,510.85c0-7.51,6.11-13.61,13.61-13.61s13.61,6.11,13.61,13.61-6.11,13.61-13.61,13.61-13.61-6.11-13.61-13.61Z"/>
  <g>
    <path class="cls-3" d="M1166.59,679.65v2.11c0,11.61-5.13,18.99-14.56,18.99-7.17,0-10.76-3.52-12.52-9.85h-.7v21.1h-13.36v-50.29h13.36v8.79h.7c1.76-6.33,5.35-9.85,12.52-9.85,9.43,0,14.56,7.39,14.56,18.99ZM1145.84,689.5c4.57,0,7.03-1.76,7.03-6.68v-4.22c0-4.92-2.46-6.68-7.03-6.68s-7.03,1.76-7.03,6.68v4.22c0,4.92,2.46,6.68,7.03,6.68Z"/>
    <path class="cls-3" d="M1172.22,648.35h13.36v51.35h-13.36v-51.35Z"/>
    <path class="cls-3" d="M1216.53,691.96h-.7c-1.9,5.06-5.2,8.79-12.8,8.79-6.89,0-11.82-3.87-11.82-10.55v-2.11c0-6.68,4.92-10.9,14.42-10.9h10.2v-2.46c0-3.24-1.41-4.57-5.28-4.57s-4.99,1.34-5.21,3.52l-.07.7h-12.66c.35-9.14,5.98-13.72,18.64-13.72s17.94,3.87,17.94,14.77v11.96c0,1.76.77,2.46,2.53,2.46h.99v9.85c-1.69.35-3.87.7-7.03.7-5.98,0-9.14-2.46-9.14-8.44ZM1207.74,691.26c6.47,0,8.09-1.76,8.09-6.33v-.7h-8.09c-2.11,0-3.52,1.06-3.52,3.17v.7c0,2.11,1.41,3.17,3.52,3.17Z"/>
    <path class="cls-3" d="M1275.97,673.95v25.74h-13.36v-21.45c0-4.57-1.76-6.33-5.98-6.33s-5.98,1.76-5.98,6.33v21.45h-13.36v-37.98h13.36v8.44h.7c1.9-6.4,5.28-9.5,12.1-9.5,8.09,0,12.52,3.8,12.52,13.29Z"/>
    <path class="cls-3" d="M1284.9,687.74v-15.47h-4.92v-10.55h4.92v-7.39l13.36-2.81v10.2h8.79v10.55h-8.79v14.07c0,1.76,1.06,2.81,2.81,2.81h5.63v10.55c-2.46.35-5.28.7-9.14.7-9.14,0-12.66-3.52-12.66-12.66Z"/>
    <path class="cls-3" d="M1352.43,679.65v2.11c0,11.61-5.13,18.99-14.56,18.99-7.17,0-10.76-3.52-12.52-9.85h-.7v21.1h-13.36v-50.29h13.36v8.79h.7c1.76-6.33,5.35-9.85,12.52-9.85,9.43,0,14.56,7.39,14.56,18.99ZM1331.67,689.5c4.57,0,7.03-1.76,7.03-6.68v-4.22c0-4.92-2.46-6.68-7.03-6.68s-7.03,1.76-7.03,6.68v4.22c0,4.92,2.46,6.68,7.03,6.68Z"/>
    <path class="cls-3" d="M1358.05,648.35h13.36v51.35h-13.36v-51.35Z"/>
    <path class="cls-3" d="M1417.84,679.65v2.11c0,10.55-6.68,18.99-20.4,18.99s-20.4-8.44-20.4-18.99v-2.11c0-10.55,6.68-18.99,20.4-18.99s20.4,8.44,20.4,18.99ZM1397.44,690.2c4.22,0,6.68-1.41,6.68-7.39v-4.22c0-5.98-2.46-7.39-6.68-7.39s-6.68,1.41-6.68,7.39v4.22c0,5.98,2.46,7.39,6.68,7.39Z"/>
    <path class="cls-3" d="M1425.37,687.74v-15.47h-4.92v-10.55h4.92v-7.39l13.36-2.81v10.2h8.79v10.55h-8.79v14.07c0,1.76,1.06,2.81,2.81,2.81h5.63v10.55c-2.46.35-5.28.7-9.14.7-9.14,0-12.66-3.52-12.66-12.66Z"/>
  </g>
</svg>